<svg xmlns="http://www.w3.org/2000/svg" viewBox="0 0 40.14 40.14"><defs><style>.cls-1{fill:#b3b3b3;}</style></defs><title>calendar_icon</title><g id="Layer_2" data-name="Layer 2"><g id="Courses"><g id="Batch"><g id="From"><g id="Icon"><path class="cls-1" d="M31.84,23.53a8.31,8.31,0,1,0,8.3,8.31A8.32,8.32,0,0,0,31.84,23.53Zm0,15.23a6.93,6.93,0,1,1,6.92-6.92A6.94,6.94,0,0,1,31.84,38.76Z"/><path class="cls-1" d="M36,31.14H32.53V27.68a.7.7,0,0,0-1.39,0v4.16a.69.69,0,0,0,.7.69H36a.7.7,0,0,0,0-1.39Z"/><path class="cls-1" d="M18.69,14.53H4.84V34.6H18.69V22.15H31.14V14.53H18.69Zm6.22,1.39h4.85v4.84H24.91Zm-12.45,0H17.3v4.84H12.46Zm-6.23,0h4.84v4.84H6.23Zm0,6.23h4.84V27H6.23Zm4.84,11.07H6.23V28.38h4.84Zm6.23,0H12.46V28.38H17.3Zm0-6.23H12.46V22.15H17.3Zm6.23-6.23H18.69V15.92h4.84Z"/><path class="cls-1" d="M22.84,38.06H1.38v-27H34.6v9a.7.7,0,0,0,1.39,0V3.46a.69.69,0,0,0-.69-.69H31.84V.69a.69.69,0,0,0-.7-.69H26.3a.69.69,0,0,0-.69.69V2.77H10.38V.69A.69.69,0,0,0,9.69,0H4.84a.69.69,0,0,0-.69.69V2.77H.69A.69.69,0,0,0,0,3.46v35.3a.69.69,0,0,0,.69.69H22.84a.7.7,0,0,0,0-1.39ZM27,1.38h3.46V5.54H27V1.38Zm-21.45,0H9V5.54H5.54V1.38ZM1.38,4.15H4.15V6.23a.69.69,0,0,0,.69.69H9.69a.69.69,0,0,0,.69-.69V4.15H25.61V6.23a.69.69,0,0,0,.69.69h4.84a.69.69,0,0,0,.7-.69V4.15H34.6V9.69H1.38Z"/></g></g></g></g></g></svg>