<svg xmlns="http://www.w3.org/2000/svg" viewBox="0 0 10.5 10.5"><defs><style>.cls-1{fill:#f2f2f2;}</style></defs><title>facebook_icon</title><g id="Layer_2" data-name="Layer 2"><g id="Footer"><g id="Contact"><g id="Social"><path class="cls-1" d="M10.5,9.91a.56.56,0,0,1-.16.41.55.55,0,0,1-.43.18H7.24V6.42H8.6l.21-1.57H7.24v-1a.9.9,0,0,1,.14-.56A.84.84,0,0,1,8,3.07h.84V1.64c-.33,0-.73,0-1.22,0a2.06,2.06,0,0,0-1.48.54A2.07,2.07,0,0,0,5.6,3.68V4.85H4.24V6.42H5.6V10.5h-5a.55.55,0,0,1-.43-.18A.56.56,0,0,1,0,9.91V.59A.57.57,0,0,1,.16.16.57.57,0,0,1,.59,0H9.91a.56.56,0,0,1,.41.16.55.55,0,0,1,.18.43Z"/></g></g></g></g></svg>