<svg xmlns="http://www.w3.org/2000/svg" viewBox="0 0 10.5 10.5"><defs><style>.cls-1{fill:#f2f2f2;}</style></defs><title>linkedin_icon</title><g id="Layer_2" data-name="Layer 2"><g id="Footer"><g id="Contact"><g id="Social"><path class="cls-1" d="M9.75,0a.73.73,0,0,1,.53.22.73.73,0,0,1,.22.53v9a.75.75,0,0,1-.75.75h-9a.73.73,0,0,1-.53-.22A.73.73,0,0,1,0,9.75v-9A.73.73,0,0,1,.22.22.73.73,0,0,1,.75,0ZM2.39,3.3a.89.89,0,0,0,.91-.9.9.9,0,0,0-.91-.9.83.83,0,0,0-.63.27.89.89,0,0,0-.26.63A.92.92,0,0,0,1.76,3,.86.86,0,0,0,2.39,3.3ZM3.16,9h0V4H1.62V9ZM9,9V6.26a3.39,3.39,0,0,0-.33-1.71,1.65,1.65,0,0,0-1.52-.68,1.73,1.73,0,0,0-1,.26,1.32,1.32,0,0,0-.52.53h0V4H4.15V9H5.7V6.52a1.91,1.91,0,0,1,.16-.89.82.82,0,0,1,.77-.4.68.68,0,0,1,.71.44,2.76,2.76,0,0,1,.11.89V9Z"/></g></g></g></g></svg>