<svg xmlns="http://www.w3.org/2000/svg" viewBox="0 0 26.18 16.81"><defs><style>.cls-1{fill:#f2f2f2;}</style></defs><title>request_icon</title><g id="Layer_2" data-name="Layer 2"><g id="Courses"><g id="Button"><path class="cls-1" d="M26.11,8.84l-3-8.07a1.13,1.13,0,0,0-.61-.66,1.15,1.15,0,0,0-.89,0L7.05,5.46a1.17,1.17,0,0,0-.66.61,1.22,1.22,0,0,0,0,.9l3,8.08a1.18,1.18,0,0,0,.61.65,1.21,1.21,0,0,0,.49.11,1.18,1.18,0,0,0,.41-.07l14.57-5.39h0A1.19,1.19,0,0,0,26.11,8.84ZM20.82,1.62,16.3,8.08l-7.64-2ZM10.23,14.07l-2.59-7,6,1.55Zm1.27.18,3.33-5.34,1.57.41h.14A.58.58,0,0,0,17,9.08L18,7.76l6,1.88Zm7.16-7.5,3.55-5.08,2.59,7Z"/><path class="cls-1" d="M6.07,14.86l-2.21.82a.58.58,0,0,0-.34.75.59.59,0,0,0,.55.38.51.51,0,0,0,.2,0L6.48,16a.59.59,0,0,0-.41-1.1Z"/><path class="cls-1" d="M1.92,11.06a.52.52,0,0,0,.21,0l1.36-.5a.59.59,0,1,0-.41-1.1l-1.36.51a.58.58,0,0,0-.34.75A.57.57,0,0,0,1.92,11.06Z"/><path class="cls-1" d="M1.39,13.86l-1,.37a.59.59,0,0,0,.21,1.14.51.51,0,0,0,.2,0l1-.37a.59.59,0,1,0-.41-1.1Z"/></g></g></g></svg>