<svg xmlns="http://www.w3.org/2000/svg" viewBox="0 0 12 9.75"><defs><style>.cls-1{fill:#f2f2f2;}</style></defs><title>twitter_icon</title><g id="Layer_2" data-name="Layer 2"><g id="Footer"><g id="Contact"><g id="Social"><path class="cls-1" d="M10.78,2.74A6.92,6.92,0,0,1,10,6,6.67,6.67,0,0,1,7.59,8.65a6.79,6.79,0,0,1-3.82,1.1A6.86,6.86,0,0,1,0,8.65l.59,0a4.9,4.9,0,0,0,3.07-1,2.32,2.32,0,0,1-1.45-.48,2.51,2.51,0,0,1-.85-1.21A3.39,3.39,0,0,0,1.8,6a3,3,0,0,0,.66-.07A2.49,2.49,0,0,1,1.05,5,2.4,2.4,0,0,1,.49,3.47V3.42a2.31,2.31,0,0,0,1.1.33A2.71,2.71,0,0,1,.8,2.86,2.29,2.29,0,0,1,.49,1.68,2.39,2.39,0,0,1,.84.45,6.84,6.84,0,0,0,3.08,2.27,6.62,6.62,0,0,0,5.91,3a3.43,3.43,0,0,1,0-.56,2.41,2.41,0,0,1,.33-1.23,2.4,2.4,0,0,1,.89-.9A2.35,2.35,0,0,1,8.3,0a2.31,2.31,0,0,1,1,.21,2.73,2.73,0,0,1,.81.56A5,5,0,0,0,11.67.19a2.42,2.42,0,0,1-1.08,1.36A5.75,5.75,0,0,0,12,1.15a5.43,5.43,0,0,1-1.24,1.29A1.9,1.9,0,0,1,10.78,2.74Z"/></g></g></g></g></svg>